<?xml version="1.0" encoding="UTF-8"?>
<svg version="1.1" xmlns="http://www.w3.org/2000/svg" width="500" height="500">
<path d="M0 0 C0.93963593 -0.00570007 1.87927185 -0.01140015 2.84738159 -0.01727295 C4.84990304 -0.02674994 6.85244028 -0.03326757 8.85498047 -0.03710938 C11.86845958 -0.04668053 14.88121644 -0.07761934 17.89453125 -0.109375 C43.3683995 -0.25127083 63.44441874 6.11446111 82.8046875 23.203125 C94.63998657 36.35551848 101.32668437 50.97030725 104.8046875 68.203125 C105.09279297 69.36328125 105.09279297 69.36328125 105.38671875 70.546875 C108.96018322 93.25674265 103.47242291 116.96813123 90.41796875 135.77734375 C77.23654082 153.66094838 58.56349822 164.3192814 36.8046875 168.203125 C31.93083328 168.62146796 27.08149954 168.69018527 22.19140625 168.71484375 C20.84233528 168.73174395 19.49327953 168.74990107 18.14424133 168.76924133 C14.64113127 168.81616949 11.13808289 168.84634447 7.63476562 168.87268066 C4.04089158 168.90277977 0.44722938 168.94920676 -3.14648438 168.99414062 C-10.16263801 169.07952017 -17.17885743 169.14715095 -24.1953125 169.203125 C-24.99748318 171.10464348 -25.79722183 173.00718804 -26.59594727 174.91015625 C-27.04156509 175.96952393 -27.48718292 177.0288916 -27.94630432 178.12036133 C-29.55497659 182.09083687 -30.86044928 186.11599976 -32.1328125 190.203125 C-37.05845761 205.30822529 -44.04577141 218.80843458 -58.1953125 227.203125 C-68.56149225 232.28524559 -78.31459386 233.50746417 -89.7578125 233.328125 C-90.86189453 233.31910156 -91.96597656 233.31007813 -93.10351562 233.30078125 C-95.8010142 233.27742628 -98.49804327 233.24467554 -101.1953125 233.203125 C-100.61123477 227.23330728 -99.36579035 221.85387586 -97.5703125 216.140625 C-97.17162964 214.84415039 -97.17162964 214.84415039 -96.76489258 213.52148438 C-96.19900192 211.68139302 -95.63066892 209.84205123 -95.06005859 208.00341797 C-94.21362614 205.26242974 -93.38322511 202.51714958 -92.55859375 199.76953125 C-89.00385047 187.94548667 -85.29014294 176.178699 -81.46826172 164.43823242 C-79.43990696 158.18247364 -77.51814615 151.91611733 -75.73730469 145.58569336 C-72.09939841 132.76901351 -66.88215747 122.73389787 -54.828125 115.8515625 C-48.27730209 112.78568915 -42.14136824 112.08254668 -34.92407227 112.04541016 C-34.2224295 112.04032944 -33.52078674 112.03524872 -32.79788208 112.03001404 C-31.283796 112.01936684 -29.76969474 112.01072483 -28.25558662 112.00389481 C-25.85454936 111.99202851 -23.45368579 111.97255792 -21.05271912 111.95077515 C-14.22945974 111.88940775 -7.40622225 111.83512712 -0.58276367 111.80175781 C3.59995823 111.7807585 7.78235558 111.74542048 11.96489143 111.70100021 C13.55277745 111.68688985 15.14072079 111.67812904 16.72866631 111.67494583 C18.95413871 111.67001076 21.17875565 111.64678999 23.40405273 111.61962891 C24.66724838 111.61154205 25.93044403 111.6034552 27.23191833 111.59512329 C34.30268157 110.81933091 40.15975496 107.57624174 44.8046875 102.203125 C50.23166021 94.12418073 50.99104859 85.72551002 49.8046875 76.203125 C48.96941169 73.55390259 48.01280285 71.27000193 46.6796875 68.83984375 C45.8046875 67.203125 45.8046875 67.203125 45.8046875 65.203125 C45.1446875 65.203125 44.4846875 65.203125 43.8046875 65.203125 C43.8046875 64.543125 43.8046875 63.883125 43.8046875 63.203125 C43.22263046 62.9161676 42.64057343 62.62921021 42.0408783 62.33355713 C40.67287202 61.6420069 39.31832958 60.92178222 37.99147034 60.15423584 C30.73292023 56.3214861 23.26174025 56.59837477 15.26953125 56.59375 C13.78021976 56.57874483 12.29092476 56.56201283 10.801651 56.54364014 C6.91044285 56.50021574 3.01945907 56.48002346 -0.87194824 56.46490479 C-4.85421886 56.44524302 -8.83625033 56.4032837 -12.81835938 56.36328125 C-20.61061239 56.28824963 -28.40276418 56.23779537 -36.1953125 56.203125 C-37.1953125 53.203125 -37.1953125 53.203125 -36 50.2890625 C-35.36724127 49.04669476 -34.72295886 47.8101615 -34.0703125 46.578125 C-33.5436499 45.55585815 -33.5436499 45.55585815 -33.00634766 44.51293945 C-32.20411726 42.95986889 -31.39695286 41.40934101 -30.5859375 39.86083984 C-29.03861726 36.90365443 -27.50711518 33.9385533 -25.9765625 30.97265625 C-9.9838134 0.04661462 -9.9838134 0.04661462 0 0 Z " fill="#050505" transform="translate(327.1953125,117.796875)"/>
<path d="M0 0 C1.27878525 -0.00137466 2.5575705 -0.00274933 3.87510681 -0.00416565 C5.27954125 -0.00062719 6.68397546 0.00300761 8.08840942 0.00672913 C9.57696023 0.0070114 11.06551117 0.00685248 12.55406189 0.00628662 C16.58458204 0.00600021 20.61507232 0.0118718 24.64558554 0.01886058 C28.86164288 0.02512001 33.07770094 0.02569997 37.29376221 0.02688599 C45.27278641 0.02999167 53.25179689 0.03819477 61.23081505 0.04823548 C70.31663192 0.05942031 79.40244944 0.06491304 88.48827147 0.06993091 C107.17416508 0.08037802 125.86004591 0.09796268 144.54592896 0.12025452 C143.73159939 4.84427696 141.89994469 8.57701641 139.60842896 12.74525452 C138.79139763 14.25533315 137.97501659 15.76576377 137.15921021 17.27650452 C136.73204712 18.0641217 136.30488403 18.85173889 135.86477661 19.66322327 C134.52004064 22.1684848 133.20641817 24.68784743 131.90139771 27.21400452 C131.46625854 28.0536676 131.03111938 28.89333069 130.58279419 29.75843811 C129.74672079 31.37411704 128.9140063 32.99154016 128.0852356 34.61097717 C121.41141086 47.43388976 121.41141086 47.43388976 115.17092896 51.43275452 C114.46194458 51.90326233 113.75296021 52.37377014 113.02249146 52.85853577 C107.54659705 55.64830531 102.29826337 56.36970688 96.21232605 56.36076355 C95.15592341 56.36332682 95.15592341 56.36332682 94.0781793 56.36594188 C91.73667529 56.36921569 89.39546285 56.35826827 87.0539856 56.3473053 C85.36824551 56.34674073 83.68250494 56.34705864 81.99676514 56.34819031 C77.43323226 56.34876303 72.86980498 56.33702175 68.30629659 56.32304239 C63.53237398 56.31052161 58.75844882 56.30936347 53.98451233 56.30699158 C44.9501089 56.30078077 35.915754 56.28437535 26.88137192 56.2642926 C16.59362495 56.24192118 6.30587564 56.23093704 -3.98188961 56.22090173 C-25.13931048 56.20000878 -46.2966877 56.16484055 -67.45407104 56.12025452 C-68.8460302 51.94437706 -67.27730323 49.98550676 -65.45407104 46.12025452 C-64.79407104 46.12025452 -64.13407104 46.12025452 -63.45407104 46.12025452 C-63.37028198 45.41127014 -63.28649292 44.70228577 -63.20016479 43.97181702 C-62.28402478 40.47033946 -60.70426261 38.36734145 -58.51657104 35.49525452 C-57.45116089 34.08373108 -57.45116089 34.08373108 -56.36422729 32.64369202 C-55.73387573 31.81095764 -55.10352417 30.97822327 -54.45407104 30.12025452 C-53.79407104 29.13025452 -53.13407104 28.14025452 -52.45407104 27.12025452 C-51.79407104 27.12025452 -51.13407104 27.12025452 -50.45407104 27.12025452 C-50.06735229 26.24627014 -50.06735229 26.24627014 -49.67282104 25.35462952 C-48.35573088 22.93996421 -46.9031872 21.30285274 -44.95407104 19.37025452 C-44.04141479 18.44986389 -44.04141479 18.44986389 -43.11032104 17.51087952 C-41.45407104 16.12025452 -41.45407104 16.12025452 -39.45407104 16.12025452 C-39.45407104 15.46025452 -39.45407104 14.80025452 -39.45407104 14.12025452 C-27.98427413 5.4893276 -14.44957355 -0.01202128 0 0 Z " fill="#050505" transform="translate(160.45407104492188,117.87974548339844)"/>
<path d="M0 0 C0.95708359 0.00222061 1.91416718 0.00444122 2.9002533 0.00672913 C3.98129837 0.00680466 5.06234344 0.00688019 6.17614746 0.00695801 C7.94018166 0.01469994 7.94018166 0.01469994 9.73985291 0.02259827 C10.93702438 0.02401321 12.13419586 0.02542816 13.36764526 0.02688599 C17.20918732 0.03250472 21.05067208 0.04506041 24.89219666 0.05775452 C27.48920102 0.0627671 30.0862063 0.06733043 32.68321228 0.07142639 C39.06539344 0.08248024 45.44754096 0.0992366 51.82969666 0.12025452 C51.26822756 6.91825662 49.9011359 13.02790714 47.91563416 19.54212952 C47.62290619 20.52280396 47.33017822 21.50347839 47.02857971 22.51387024 C46.40847907 24.58574604 45.78466147 26.65651263 45.15733337 28.72621155 C44.22072649 31.81735032 43.29564823 34.91174271 42.37266541 38.00697327 C39.15134168 48.75678873 35.76382274 59.43295815 32.17234802 70.06468201 C30.12378597 76.15553025 28.28941424 82.26601872 26.70469666 88.49525452 C25.19077275 94.3949701 23.49968057 100.16869969 21.52500916 105.93275452 C19.42034738 112.09620022 17.6122407 118.31581386 15.89219666 124.59681702 C15.51661118 125.95871658 15.51661118 125.95871658 15.13343811 127.34812927 C14.09892237 131.10375543 13.06681236 134.85975207 12.05918884 138.62269592 C11.31035159 141.41014032 10.54059497 144.19110254 9.76719666 146.97181702 C9.546203 147.8176535 9.32520935 148.66348999 9.09751892 149.53495789 C7.22615715 156.16011428 4.49781402 159.59605064 -1.59608459 163.07728577 C-2.88672659 163.70600016 -4.1826137 164.32403009 -5.48280334 164.93275452 C-6.92046757 165.62772738 -8.35796303 166.32304947 -9.79530334 167.01869202 C-10.52491272 167.36770569 -11.25452209 167.71671936 -12.00624084 168.0763092 C-14.70265453 169.37706111 -17.37347844 170.72502569 -20.04432678 172.07728577 C-26.72843024 175.45806152 -33.46553258 178.72195774 -40.23280334 181.93275452 C-41.41096619 182.49240906 -41.41096619 182.49240906 -42.6129303 183.06336975 C-47.09467447 185.17922906 -51.60242483 187.19725652 -56.17030334 189.12025452 C-56.50030334 188.79025452 -56.83030334 188.46025452 -57.17030334 188.12025452 C-56.75433652 181.35743906 -55.2182882 175.50841945 -53.04530334 169.12025452 C-50.39876957 161.08703711 -47.96853094 153.0272572 -45.73280334 144.87025452 C-43.35906081 136.23748979 -40.83683339 127.66710418 -38.17030334 119.12025452 C-35.5114021 110.59275103 -32.98571281 102.04288828 -30.60780334 93.43275452 C-26.76584274 79.5334189 -22.54285412 65.76263114 -18.26795959 51.99134827 C-17.61001466 49.86777203 -16.95246766 47.74407246 -16.29530334 45.62025452 C-15.96917053 44.56725159 -15.64303772 43.51424866 -15.30702209 42.42933655 C-13.38142232 36.17393611 -11.51346935 29.90431397 -9.69764709 23.61634827 C-9.49151794 22.90270111 -9.28538879 22.18905396 -9.07301331 21.45378113 C-8.05989956 17.94064614 -7.05249966 14.42596527 -6.051651 10.90931702 C-5.68990784 9.64732483 -5.32816467 8.38533264 -4.95545959 7.08509827 C-4.6345636 5.95708801 -4.3136676 4.82907776 -3.98304749 3.66688538 C-2.86341515 0.15865921 -2.86341515 0.15865921 0 0 Z " fill="#070707" transform="translate(195.17030334472656,189.87974548339844)"/>
<path d="M0 0 C0.33 1.32 0.66 2.64 1 4 C0.52949219 4.37511719 0.05898437 4.75023437 -0.42578125 5.13671875 C-4.1070004 8.16248273 -6.70821433 10.76019651 -9 15 C-10.6875 16.8125 -10.6875 16.8125 -12 18 C-12.66 17.67 -13.32 17.34 -14 17 C-12.88321917 15.3278148 -11.75633648 13.66237197 -10.625 12 C-9.99851562 11.071875 -9.37203125 10.14375 -8.7265625 9.1875 C-8.15679687 8.465625 -7.58703125 7.74375 -7 7 C-6.34 7 -5.68 7 -5 7 C-4.731875 6.401875 -4.46375 5.80375 -4.1875 5.1875 C-3.01506533 3.02775192 -1.80630718 1.64209744 0 0 Z " fill="#585858" transform="translate(115,138)"/>
<path d="M0 0 C0.66 0.33 1.32 0.66 2 1 C-0.85276137 3.93200474 -3.65079784 6.64315404 -7 9 C-7.66 8.67 -8.32 8.34 -9 8 C-7.625 6.5 -7.625 6.5 -6 5 C-5.34 5 -4.68 5 -4 5 C-4 4.34 -4 3.68 -4 3 C-2 1.375 -2 1.375 0 0 Z " fill="#5A5A5A" transform="translate(125,129)"/>
</svg>
